<svg width="39" height="39" viewBox="0 0 39 39" fill="none" xmlns="http://www.w3.org/2000/svg">
<circle cx="19.5" cy="19.5" r="16.5" fill="white"/>
<path d="M19.1452 1.86035C9.46736 1.86035 1.59521 9.7325 1.59521 19.4104C1.59521 29.0882 9.46736 36.9604 19.1452 36.9604C28.8231 36.9604 36.6952 29.0882 36.6952 19.4104C36.6952 9.7325 28.8231 1.86035 19.1452 1.86035ZM19.1452 34.1524C11.0157 34.1524 4.40321 27.5399 4.40321 19.4104C4.40321 11.2808 11.0157 4.66835 19.1452 4.66835C27.2748 4.66835 33.8872 11.2808 33.8872 19.4104C33.8872 27.5399 27.2748 34.1524 19.1452 34.1524ZM24.0124 18.0434H14.3541V9.41855H12.1525V29.6128H14.3541V19.9544H24.0124V29.6128H26.214V9.41855H24.0124V18.0434Z" fill="black"/>
</svg>
