<svg width="32" height="32" viewBox="0 0 32 32" fill="none" xmlns="http://www.w3.org/2000/svg">
<path d="M3.5 25V6.5L15.5 16L3.5 25Z" fill="white"/>
<path d="M28 25V6.5L16 16L28 25Z" fill="white"/>
<path d="M29.4144 5.38082C28.8608 5.10882 28.2144 5.17602 27.7264 5.55362L16 14.648L4.27359 5.55362C3.78719 5.17602 3.13919 5.10882 2.58559 5.38082C2.03199 5.65282 1.68799 6.20322 1.68799 6.82082V25.1808C1.68799 25.7968 2.03199 26.3488 2.58559 26.6208C2.81119 26.7312 3.05279 26.7856 3.29279 26.7856C3.63999 26.7856 3.98399 26.6704 4.27359 26.448L16 17.3536L27.7264 26.448C28.0144 26.672 28.3584 26.7856 28.7072 26.7856C28.9472 26.7856 29.1888 26.7312 29.4144 26.6208C29.968 26.3488 30.312 25.7984 30.312 25.1808V6.82082C30.312 6.20482 29.968 5.65282 29.4144 5.38082ZM3.92799 23.88V8.12002L14.088 16L3.92799 23.88ZM28.072 23.88L17.912 16L28.072 8.12002V23.88Z" fill="black"/>
</svg>
