<svg width="150" height="150" viewBox="0 0 150 150" fill="none" xmlns="http://www.w3.org/2000/svg">
<g clip-path="url(#clip0_96_7)">
<path d="M75 0C33.6 0 0 33.6 0 75C0 116.4 33.6 150 75 150C116.4 150 150 116.4 150 75C150 33.6 116.4 0 75 0ZM75 2C104.8 2 130.4 19.9 141.8 45.5H8.2C19.6 19.9 45.2 2 75 2ZM75 148C45.2 148 19.6 130.1 8.2 104.5H141.7C130.3 130.1 104.7 148 74.9 148H75ZM7.4 102.5C3.9 94 2 84.7 2 75C2 65.3 3.9 56 7.4 47.5H142.6C146.1 56 148 65.3 148 75C148 84.7 146.1 94.1 142.5 102.6C142.5 102.5 7.3 102.5 7.3 102.5H7.4Z" fill="black"/>
</g>
<defs>
<clipPath id="clip0_96_7">
<rect width="150" height="150" fill="white"/>
</clipPath>
</defs>
</svg>
