<svg width="150" height="150" viewBox="0 0 150 150" fill="none" xmlns="http://www.w3.org/2000/svg">
<g clip-path="url(#clip0_69_4)">
<path d="M75 0C33.58 0 0 33.58 0 75C0 116.42 33.58 150 75 150C116.42 150 150 116.42 150 75C150 33.58 116.42 0 75 0ZM75 149C44.48 149 18.23 130.43 6.93 104H142.55V103H6.52C2.97 94.36 1 84.9 1 75C1 65.1 2.97 55.64 6.52 47H142.98V46H6.93C18.23 19.57 44.48 1 75 1C115.8 1 149 34.2 149 75C149 115.8 115.8 149 75 149Z" fill="black"/>
</g>
<defs>
<clipPath id="clip0_69_4">
<rect width="150" height="150" fill="white"/>
</clipPath>
</defs>
</svg>
