<?xml version="1.0" encoding="UTF-8"?>
<svg id="_レイヤー_1" data-name="レイヤー 1" xmlns="http://www.w3.org/2000/svg" viewBox="0 0 64 64">
  <defs>
    <style>
      .cls-1 {
        fill: #fff;
      }
    </style>
  </defs>
  <circle class="cls-1" cx="32.58" cy="31.98" r="16.5"/>
  <path d="M35.66,23.34c-.59-1.56-.74-1.97-.87-2.58h-4.46c-.13.66-.33,1.3-.82,2.58l-5.63,14.78c-.46,1.18-.97,2.33-1.36,3.02h4.2c.21-1.07.31-1.46.77-2.69l1.02-2.79h8.19l1.02,2.79c.28.74.56,1.84.72,2.69h4.2c-.36-.67-.67-1.38-1.31-3.02l-5.68-14.78ZM29.43,32.72l2.66-7.58q.08-.23.49-1.43c.28.84.36,1.15.46,1.43l2.74,7.58h-6.35Z"/>
  <path d="M32.58,14.43c-9.68,0-17.55,7.87-17.55,17.55s7.87,17.55,17.55,17.55,17.55-7.87,17.55-17.55-7.87-17.55-17.55-17.55ZM32.58,46.72c-8.13,0-14.74-6.61-14.74-14.74s6.61-14.74,14.74-14.74,14.74,6.61,14.74,14.74-6.61,14.74-14.74,14.74Z"/>
</svg>